<svg xmlns="http://www.w3.org/2000/svg" data-name="Layer 1" viewBox="0 0 64 64"><path d="M46.94 51.76a.49.49 0 0 1-.35-.14l-31.8-31.81a.49.49 0 0 1 .69-.69l31.81 31.8a.5.5 0 0 1 0 .7.47.47 0 0 1-.35.14zm4.33-4.33a.49.49 0 0 1-.35-.14l-31.8-31.81a.49.49 0 0 1 .69-.69l31.81 31.8a.5.5 0 0 1 0 .7.47.47 0 0 1-.35.14z"/><path d="M63.51 64a.57.57 0 0 1-.18 0l-20.89-7.94a.42.42 0 0 1-.18-.11L1.1 14.78A3.42 3.42 0 0 1 .91 10l9-9a3.42 3.42 0 0 1 4.83.19L56 42.26a.42.42 0 0 1 .11.18L64 63.33a.49.49 0 0 1-.46.67Zm-20.63-8.82 19.78 7.48-7.48-19.78L14.09 1.79a2.45 2.45 0 0 0-3.44-.19l-9 9.05a2.45 2.45 0 0 0 .19 3.44Z"/><path d="M10.8 24.29a.46.46 0 0 1-.34-.15.47.47 0 0 1 0-.69l13-13a.49.49 0 1 1 .69.69l-13 13a.47.47 0 0 1-.35.15zM8 21.44a.5.5 0 0 1-.35-.15.49.49 0 0 1 0-.69l13-13a.49.49 0 0 1 .7.7l-13 13a.49.49 0 0 1-.35.14zm34.61 34.65a.49.49 0 0 1-.35-.14.5.5 0 0 1 0-.7l13-13a.49.49 0 0 1 .7.7L43 56a.47.47 0 0 1-.39.09zM55.53 61a.47.47 0 0 1-.35-.14.5.5 0 0 1 0-.7l5-5a.49.49 0 0 1 .7.7l-5 5a.47.47 0 0 1-.35.14z"/></svg>